<?xml version="1.0" encoding="utf-8"?>
<!-- Generator: Adobe Illustrator 28.0.0, SVG Export Plug-In . SVG Version: 6.00 Build 0)  -->
<svg version="1.1" id="Camada_1" xmlns="http://www.w3.org/2000/svg" xmlns:xlink="http://www.w3.org/1999/xlink" x="0px" y="0px"
	 viewBox="0 0 991.9 847.2" style="enable-background:new 0 0 991.9 847.2;" xml:space="preserve">
<style type="text/css">
	.st0{fill:#383838;}
	.st1{fill:#FCA311;}
</style>
<g>
	<g>
		<path d="M681.2,256.3c17.1,17.9,15.6,37.6,5.3,56.7c-24.2,44.6-23.6,86.4,3.5,130.9c28.2,46.1,30.8,97.4,14.9,148.8
			c-9.2-15.9-18.8-32.3-28.4-48.7c-2.3,0.5-4.6,0.9-6.9,1.4c15.4,77.5-25.9,130.1-76.7,182.2c1.8-24.7,3.5-46.5,5.1-68.2
			c-1.5-0.3-3.1-0.6-4.6-0.9c-14.4,48.4-42,87.5-80.8,119.4c-12.5,10.3-21,9-32.5-0.5c-38.3-31.6-66.1-70-83.3-117.8
			c0,10.5-0.6,21,0.2,31.4c0.8,11.2,2.7,22.3,4.8,38.5c-51.6-53.5-93.7-105.6-78.2-183.1c-2.2-0.7-4.4-1.4-6.6-2.2
			c-9.5,15.8-19,31.5-27.8,46c-12.1-22.3-14.6-77.8-2.2-109c8.9-22.4,18.7-44.5,29.5-66.1c11.7-23.3,12-46.2,2.4-69.9
			c-4.3-10.6-7.7-21.6-12.5-32c-9-19.9-11.3-38.9,6-57.5c-19.3-5.6-30.9,3.4-41,15.3c-27.2,32.3-35.4,71.8-37.7,111.9
			c-1.7,29.6,3.4,59.5,5,89.2c0.9,16.4,2.7,33.1,0.9,49.3c-2,17.4-15.5,25-30.4,16.1c-14.2-8.5-28.4-20.1-37.4-33.7
			c-19.9-30.2-36.2-62.7-54.7-93.9c-26.8-45.1-57.1-87.3-100.9-119.4c21.6,1.3,59.3,20.1,88,48.1c24.3,23.7,45.4,50.5,66.9,74.7
			c-3.9-26.6-9.2-55.3-12.2-84.2c-5.2-51.1-2.9-101.7,15.4-150.5C224.2,46.1,369.8,39.3,458.7,97.1c4.1,2.7,6.4,8.2,9.5,12.4
			c8.5-2,18.5-6.1,28.5-6.2c9.7-0.1,19.4,3.9,29.1,6.2c-4-3.2-8-6.4-11.9-9.6c8.5-2.1,18.3-2.2,25.5-6.5
			c102.3-61.1,265.6-40.8,293.1,137.2c9,58.1,2.3,115.4-9.2,172.4c-0.8,4.1-1.3,8.3-0.6,13.3c37.9-58.6,85.2-105.2,153.1-127.1
			C910.5,340,875.3,412.3,835,481.2c-11.2,19.2-25.9,38-43.1,51.9c-20.9,16.8-38.8,7.2-39.3-19.6c-0.4-22.1,2.5-44.4,5.4-66.3
			c6.7-49.6,2.2-97.9-16.8-144.2c-5.4-13.2-13.9-26.2-24-36.1c-8.1-8-20.8-11.3-31.4-16.6C684.3,252.2,682.8,254.3,681.2,256.3z
			 M343.9,342.8c36.9,8.9,48.3,35.4,48,65.2c-0.3,28.1-7.2,56.2-12.3,84.1c-3.8,20.8-5.7,41,12.3,56.4c19,16.2,41.3,25.7,66.6,22.9
			c8.2-0.9,20.2-6.8,22.2-13c2-6.3-4.9-17-10.4-23.7c-6.4-7.7-15.4-13.2-26.5-22.2c37.7,0,70.1,0,105.6,0
			c-8.1,7.5-13.9,13-19.9,18.4c-9,8.1-26.3,15.3-16.3,29.1c5.9,8.1,23,8.1,35.1,11.6c1.7,0.5,3.8-0.2,5.7-0.5
			c46.8-7.5,67.9-38.3,57.3-83.7c-3.1-13-7.1-25.7-9.9-38.8c-10.4-47.4,5.9-85.9,46.5-107.8c-34.1-15.8-60.3-7.6-83.3,21.9
			c1.9-22.7,3.9-44.4,11.8-63.6c13.6-32.9,46.2-39.8,78-45.6c-22.7-44.6-78.4-79.8-112.3-47.7c-0.7-23.2-14.3-29.2-34.4-29.2
			c-48.5,0.1-48.5-0.4-58.2,28.6c-33.7-25.3-88.3-2-107.5,43.4c22.7,12.6,48.3,21.4,66.5,38.2c19.4,17.9,19.3,46.2,19.1,74.1
			C395.2,329.9,377.4,325.8,343.9,342.8z M809.1,382.2c10.6-53.8,10.8-108.4-4.2-161.6c-6.4-22.8-16.7-45.8-30.4-65
			c-27.1-38-81.7-36.1-103.7,1.2c69.5-0.5,101.8,19.7,111,69.5c-29.7-33.3-51.2-42.4-85.9-34.4c35.1,5.9,62.2,19.3,75.7,50.8
			c-20.1-6.4-38.7-12.4-57.2-18.3c-0.8,1.7-1.7,3.5-2.5,5.2c40.9,12,58.4,43.4,67.1,80.8c4.5,19.1,7.3,38.8,8.1,58.4
			c1.3,30.6,0.4,61.3,0.4,91.9c0.6,0.2,1.1,0.4,1.7,0.6c5.3-38.8,10.5-77.6,16.2-119.4C806.7,357.3,807.9,369.7,809.1,382.2z
			 M204,460.7c0.9,0,1.8-0.1,2.8-0.1c0-36.1-2.6-72.4,0.6-108.2c4.7-51.9,15.1-102.5,74.1-123.6c-0.9-1.6-1.7-3.2-2.6-4.8
			c-19,6.4-37.9,12.7-57,19.1c12.9-33.1,41.6-44.7,73.3-52.4c-35.3-5.5-63.4,5.7-85,39.2c12.5-54,38-70,113.5-76
			c-10.3-8.7-20.9-17.8-33.1-22.3c-31.6-11.5-64.3,3.8-83.2,39.8c-35.2,66.9-34.4,138.6-23.6,211.3c1.4-12.9,2.9-25.7,4.5-40
			C193.6,383.3,198.8,422,204,460.7z M416.6,582.3c40.1,59.7,125.3,59.5,158.8,0.3C522.4,601.7,470.3,601.4,416.6,582.3z
			 M593.8,142.5c1.1,0.5,2.3,1,3.4,1.5c15.5-10.6,30.1-23.5,46.9-31.3c17.2-8,36.7-11.1,55-16.3c-49.6-17.3-110.6-5.9-137.6,24.6
			c21.4-6.6,44.5-13.6,70.9-21.7C617.3,116.3,605.6,129.4,593.8,142.5z M293.7,96.9c40.5,3.9,74.6,19.4,101.5,50.2
			c1.4-1.4,2.8-2.9,4.2-4.3c-12-13.5-24-27-39-43.9c26.6,8.3,50,15.6,75.3,23.5C392.3,85.1,344.2,83.8,293.7,96.9z M149.2,428.6
			c7.2,32.4,50.9,92.2,68.3,94.7C197.3,480.7,162.7,431.8,149.2,428.6z M778.1,525.3c32.7-23.4,45.6-61.1,69-92.7
			C832.4,428.9,793.4,481.6,778.1,525.3z"/>
	</g>
	<g>
		<path class="st0" d="M681.2,256.3c17.1,17.9,15.6,37.6,5.3,56.7c-24.2,44.6-23.6,86.4,3.5,130.9c28.2,46.1,30.8,97.4,14.9,148.8
			c-9.2-15.9-18.8-32.3-28.4-48.7c-2.3,0.5-4.6,0.9-6.9,1.4c15.4,77.5-25.9,130.1-76.7,182.2c1.8-24.7,3.5-46.5,5.1-68.2
			c-1.5-0.3-3.1-0.6-4.6-0.9c-14.4,48.4-42,87.5-80.8,119.4c-12.5,10.3-21,9-32.5-0.5c-38.3-31.6-66.1-70-83.3-117.8
			c0,10.5-0.6,21,0.2,31.4c0.8,11.2,2.7,22.3,4.8,38.5c-51.6-53.5-93.7-105.6-78.2-183.1c-2.2-0.7-4.4-1.4-6.6-2.2
			c-9.5,15.8-19,31.5-27.8,46c-12.1-22.3-14.6-77.8-2.2-109c8.9-22.4,18.7-44.5,29.5-66.1c11.7-23.3,12-46.2,2.4-69.9
			c-4.3-10.6-7.7-21.6-12.5-32c-9-19.9-11.3-38.9,6-57.5c-19.3-5.6-30.9,3.4-41,15.3c-27.2,32.3-35.4,71.8-37.7,111.9
			c-1.7,29.6,3.4,59.5,5,89.2c0.9,16.4,2.7,33.1,0.9,49.3c-2,17.4-15.5,25-30.4,16.1c-14.2-8.5-28.4-20.1-37.4-33.7
			c-19.9-30.2-36.2-62.7-54.7-93.9c-26.8-45.1-57.1-87.3-100.9-119.4c21.6,1.3,59.3,20.1,88,48.1c24.3,23.7,45.4,50.5,66.9,74.7
			c-3.9-26.6-9.2-55.3-12.2-84.2c-5.2-51.1-2.9-101.7,15.4-150.5C224.2,46.1,369.8,39.3,458.7,97.1c4.1,2.7,6.4,8.2,9.5,12.4
			c8.5-2,18.5-6.1,28.5-6.2c9.7-0.1,19.4,3.9,29.1,6.2c-4-3.2-8-6.4-11.9-9.6c8.5-2.1,18.3-2.2,25.5-6.5
			c102.3-61.1,265.6-40.8,293.1,137.2c9,58.1,2.3,115.4-9.2,172.4c-0.8,4.1-1.3,8.3-0.6,13.3c37.9-58.6,85.2-105.2,153.1-127.1
			C910.5,340,875.3,412.3,835,481.2c-11.2,19.2-25.9,38-43.1,51.9c-20.9,16.8-38.8,7.2-39.3-19.6c-0.4-22.1,2.5-44.4,5.4-66.3
			c6.7-49.6,2.2-97.9-16.8-144.2c-5.4-13.2-13.9-26.2-24-36.1c-8.1-8-20.8-11.3-31.4-16.6C684.3,252.2,682.8,254.3,681.2,256.3z
			 M343.9,342.8c36.9,8.9,48.3,35.4,48,65.2c-0.3,28.1-7.2,56.2-12.3,84.1c-3.8,20.8-5.7,41,12.3,56.4c19,16.2,41.3,25.7,66.6,22.9
			c8.2-0.9,20.2-6.8,22.2-13c2-6.3-4.9-17-10.4-23.7c-6.4-7.7-15.4-13.2-26.5-22.2c37.7,0,70.1,0,105.6,0
			c-8.1,7.5-13.9,13-19.9,18.4c-9,8.1-26.3,15.3-16.3,29.1c5.9,8.1,23,8.1,35.1,11.6c1.7,0.5,3.8-0.2,5.7-0.5
			c46.8-7.5,67.9-38.3,57.3-83.7c-3.1-13-7.1-25.7-9.9-38.8c-10.4-47.4,5.9-85.9,46.5-107.8c-34.1-15.8-60.3-7.6-83.3,21.9
			c1.9-22.7,3.9-44.4,11.8-63.6c13.6-32.9,46.2-39.8,78-45.6c-22.7-44.6-78.4-79.8-112.3-47.7c-0.7-23.2-14.3-29.2-34.4-29.2
			c-48.5,0.1-48.5-0.4-58.2,28.6c-33.7-25.3-88.3-2-107.5,43.4c22.7,12.6,48.3,21.4,66.5,38.2c19.4,17.9,19.3,46.2,19.1,74.1
			C395.2,329.9,377.4,325.8,343.9,342.8z M809.1,382.2c10.6-53.8,10.8-108.4-4.2-161.6c-6.4-22.8-16.7-45.8-30.4-65
			c-27.1-38-81.7-36.1-103.7,1.2c69.5-0.5,101.8,19.7,111,69.5c-29.7-33.3-51.2-42.4-85.9-34.4c35.1,5.9,62.2,19.3,75.7,50.8
			c-20.1-6.4-38.7-12.4-57.2-18.3c-0.8,1.7-1.7,3.5-2.5,5.2c40.9,12,58.4,43.4,67.1,80.8c4.5,19.1,7.3,38.8,8.1,58.4
			c1.3,30.6,0.4,61.3,0.4,91.9c0.6,0.2,1.1,0.4,1.7,0.6c5.3-38.8,10.5-77.6,16.2-119.4C806.7,357.3,807.9,369.7,809.1,382.2z
			 M204,460.7c0.9,0,1.8-0.1,2.8-0.1c0-36.1-2.6-72.4,0.6-108.2c4.7-51.9,15.1-102.5,74.1-123.6c-0.9-1.6-1.7-3.2-2.6-4.8
			c-19,6.4-37.9,12.7-57,19.1c12.9-33.1,41.6-44.7,73.3-52.4c-35.3-5.5-63.4,5.7-85,39.2c12.5-54,38-70,113.5-76
			c-10.3-8.7-20.9-17.8-33.1-22.3c-31.6-11.5-64.3,3.8-83.2,39.8c-35.2,66.9-34.4,138.6-23.6,211.3c1.4-12.9,2.9-25.7,4.5-40
			C193.6,383.3,198.8,422,204,460.7z M416.6,582.3c40.1,59.7,125.3,59.5,158.8,0.3C522.4,601.7,470.3,601.4,416.6,582.3z
			 M593.8,142.5c1.1,0.5,2.3,1,3.4,1.5c15.5-10.6,30.1-23.5,46.9-31.3c17.2-8,36.7-11.1,55-16.3c-49.6-17.3-110.6-5.9-137.6,24.6
			c21.4-6.6,44.5-13.6,70.9-21.7C617.3,116.3,605.6,129.4,593.8,142.5z M293.7,96.9c40.5,3.9,74.6,19.4,101.5,50.2
			c1.4-1.4,2.8-2.9,4.2-4.3c-12-13.5-24-27-39-43.9c26.6,8.3,50,15.6,75.3,23.5C392.3,85.1,344.2,83.8,293.7,96.9z M149.2,428.6
			c7.2,32.4,50.9,92.2,68.3,94.7C197.3,480.7,162.7,431.8,149.2,428.6z M778.1,525.3c32.7-23.4,45.6-61.1,69-92.7
			C832.4,428.9,793.4,481.6,778.1,525.3z"/>
	</g>
	<g>
		<path class="st1" d="M681.2,256.3c17.1,17.9,15.6,37.6,5.3,56.7c-24.2,44.6-23.6,86.4,3.5,130.9c28.2,46.1,30.8,97.4,14.9,148.8
			c-9.2-15.9-18.8-32.3-28.4-48.7c-2.3,0.5-4.6,0.9-6.9,1.4c15.4,77.5-25.9,130.1-76.7,182.2c1.8-24.7,3.5-46.5,5.1-68.2
			c-1.5-0.3-3.1-0.6-4.6-0.9c-14.4,48.4-42,87.5-80.8,119.4c-12.5,10.3-21,9-32.5-0.5c-38.3-31.6-66.1-70-83.3-117.8
			c0,10.5-0.6,21,0.2,31.4c0.8,11.2,2.7,22.3,4.8,38.5c-51.6-53.5-93.7-105.6-78.2-183.1c-2.2-0.7-4.4-1.4-6.6-2.2
			c-9.5,15.8-19,31.5-27.8,46c-12.1-22.3-14.6-77.8-2.2-109c8.9-22.4,18.7-44.5,29.5-66.1c11.7-23.3,12-46.2,2.4-69.9
			c-4.3-10.6-7.7-21.6-12.5-32c-9-19.9-11.3-38.9,6-57.5c-19.3-5.6-30.9,3.4-41,15.3c-27.2,32.3-35.4,71.8-37.7,111.9
			c-1.7,29.6,3.4,59.5,5,89.2c0.9,16.4,2.7,33.1,0.9,49.3c-2,17.4-15.5,25-30.4,16.1c-14.2-8.5-28.4-20.1-37.4-33.7
			c-19.9-30.2-36.2-62.7-54.7-93.9c-26.8-45.1-57.1-87.3-100.9-119.4c21.6,1.3,59.3,20.1,88,48.1c24.3,23.7,45.4,50.5,66.9,74.7
			c-3.9-26.6-9.2-55.3-12.2-84.2c-5.2-51.1-2.9-101.7,15.4-150.5C224.2,46.1,369.8,39.3,458.7,97.1c4.1,2.7,6.4,8.2,9.5,12.4
			c8.5-2,18.5-6.1,28.5-6.2c9.7-0.1,19.4,3.9,29.1,6.2c-4-3.2-8-6.4-11.9-9.6c8.5-2.1,18.3-2.2,25.5-6.5
			c102.3-61.1,265.6-40.8,293.1,137.2c9,58.1,2.3,115.4-9.2,172.4c-0.8,4.1-1.3,8.3-0.6,13.3c37.9-58.6,85.2-105.2,153.1-127.1
			C910.5,340,875.3,412.3,835,481.2c-11.2,19.2-25.9,38-43.1,51.9c-20.9,16.8-38.8,7.2-39.3-19.6c-0.4-22.1,2.5-44.4,5.4-66.3
			c6.7-49.6,2.2-97.9-16.8-144.2c-5.4-13.2-13.9-26.2-24-36.1c-8.1-8-20.8-11.3-31.4-16.6C684.3,252.2,682.8,254.3,681.2,256.3z
			 M343.9,342.8c36.9,8.9,48.3,35.4,48,65.2c-0.3,28.1-7.2,56.2-12.3,84.1c-3.8,20.8-5.7,41,12.3,56.4c19,16.2,41.3,25.7,66.6,22.9
			c8.2-0.9,20.2-6.8,22.2-13c2-6.3-4.9-17-10.4-23.7c-6.4-7.7-15.4-13.2-26.5-22.2c37.7,0,70.1,0,105.6,0
			c-8.1,7.5-13.9,13-19.9,18.4c-9,8.1-26.3,15.3-16.3,29.1c5.9,8.1,23,8.1,35.1,11.6c1.7,0.5,3.8-0.2,5.7-0.5
			c46.8-7.5,67.9-38.3,57.3-83.7c-3.1-13-7.1-25.7-9.9-38.8c-10.4-47.4,5.9-85.9,46.5-107.8c-34.1-15.8-60.3-7.6-83.3,21.9
			c1.9-22.7,3.9-44.4,11.8-63.6c13.6-32.9,46.2-39.8,78-45.6c-22.7-44.6-78.4-79.8-112.3-47.7c-0.7-23.2-14.3-29.2-34.4-29.2
			c-48.5,0.1-48.5-0.4-58.2,28.6c-33.7-25.3-88.3-2-107.5,43.4c22.7,12.6,48.3,21.4,66.5,38.2c19.4,17.9,19.3,46.2,19.1,74.1
			C395.2,329.9,377.4,325.8,343.9,342.8z M809.1,382.2c10.6-53.8,10.8-108.4-4.2-161.6c-6.4-22.8-16.7-45.8-30.4-65
			c-27.1-38-81.7-36.1-103.7,1.2c69.5-0.5,101.8,19.7,111,69.5c-29.7-33.3-51.2-42.4-85.9-34.4c35.1,5.9,62.2,19.3,75.7,50.8
			c-20.1-6.4-38.7-12.4-57.2-18.3c-0.8,1.7-1.7,3.5-2.5,5.2c40.9,12,58.4,43.4,67.1,80.8c4.5,19.1,7.3,38.8,8.1,58.4
			c1.3,30.6,0.4,61.3,0.4,91.9c0.6,0.2,1.1,0.4,1.7,0.6c5.3-38.8,10.5-77.6,16.2-119.4C806.7,357.3,807.9,369.7,809.1,382.2z
			 M204,460.7c0.9,0,1.8-0.1,2.8-0.1c0-36.1-2.6-72.4,0.6-108.2c4.7-51.9,15.1-102.5,74.1-123.6c-0.9-1.6-1.7-3.2-2.6-4.8
			c-19,6.4-37.9,12.7-57,19.1c12.9-33.1,41.6-44.7,73.3-52.4c-35.3-5.5-63.4,5.7-85,39.2c12.5-54,38-70,113.5-76
			c-10.3-8.7-20.9-17.8-33.1-22.3c-31.6-11.5-64.3,3.8-83.2,39.8c-35.2,66.9-34.4,138.6-23.6,211.3c1.4-12.9,2.9-25.7,4.5-40
			C193.6,383.3,198.8,422,204,460.7z M416.6,582.3c40.1,59.7,125.3,59.5,158.8,0.3C522.4,601.7,470.3,601.4,416.6,582.3z
			 M593.8,142.5c1.1,0.5,2.3,1,3.4,1.5c15.5-10.6,30.1-23.5,46.9-31.3c17.2-8,36.7-11.1,55-16.3c-49.6-17.3-110.6-5.9-137.6,24.6
			c21.4-6.6,44.5-13.6,70.9-21.7C617.3,116.3,605.6,129.4,593.8,142.5z M293.7,96.9c40.5,3.9,74.6,19.4,101.5,50.2
			c1.4-1.4,2.8-2.9,4.2-4.3c-12-13.5-24-27-39-43.9c26.6,8.3,50,15.6,75.3,23.5C392.3,85.1,344.2,83.8,293.7,96.9z M149.2,428.6
			c7.2,32.4,50.9,92.2,68.3,94.7C197.3,480.7,162.7,431.8,149.2,428.6z M778.1,525.3c32.7-23.4,45.6-61.1,69-92.7
			C832.4,428.9,793.4,481.6,778.1,525.3z"/>
	</g>
</g>
</svg>
